G04*
G04 #@! TF.GenerationSoftware,Altium Limited,Altium Designer,18.1.6 (161)*
G04*
G04 Layer_Color=8388736*
%FSLAX44Y44*%
%MOMM*%
G71*
G01*
G75*
%ADD52C,1.8000*%
%ADD107C,0.6096*%
%ADD108R,0.8032X0.7032*%
%ADD109R,2.4032X1.2532*%
%ADD110R,1.2532X1.2032*%
%ADD111R,0.7032X0.9032*%
%ADD112R,0.6032X0.8532*%
%ADD113R,0.8532X0.8032*%
%ADD114C,0.4032*%
%ADD115R,0.8032X0.8532*%
%ADD116R,1.8032X1.2032*%
%ADD117R,1.8032X0.8032*%
%ADD118R,2.0032X2.5032*%
%ADD119R,4.0032X2.2332*%
%ADD120R,2.3032X1.3032*%
%ADD121R,1.0032X1.3032*%
%ADD122R,2.7032X1.7032*%
%ADD123R,0.7032X0.8032*%
%ADD124R,1.3032X1.2032*%
%ADD125R,3.2032X1.2032*%
%ADD126R,1.4032X1.4032*%
%ADD127R,0.7832X0.7032*%
%ADD128R,1.0032X0.9532*%
%ADD129R,2.7032X1.6282*%
%ADD130R,1.9532X0.6032*%
%ADD131R,0.8532X1.0032*%
%ADD132O,1.1000X2.6000*%
%ADD133O,2.6000X1.1000*%
%ADD134O,3.0500X0.8500*%
%ADD135O,0.8500X3.0500*%
%ADD136R,0.4332X0.7532*%
%ADD137O,0.4532X0.7532*%
%ADD138R,2.2032X1.8032*%
%ADD139R,0.9032X0.4532*%
%ADD140R,0.7532X1.0032*%
%ADD141R,0.8532X0.6032*%
%ADD142C,0.7032*%
%ADD143C,1.8000*%
%ADD144R,1.7032X2.7032*%
%ADD145R,1.1016X0.7266*%
%ADD146R,0.6016X1.1016*%
%ADD147R,0.6016X0.8516*%
%ADD148R,0.8516X0.6016*%
%ADD149C,3.4036*%
%ADD150C,0.2032*%
%ADD151R,1.7032X1.7032*%
%ADD152C,1.7032*%
%ADD153C,0.6032*%
G36*
X743749Y821749D02*
X738750D01*
X739083Y823212D01*
X744101D01*
X743749Y821749D01*
D02*
G37*
G36*
X734416Y821953D02*
X734527D01*
X734675Y821934D01*
X735027Y821879D01*
X735397Y821786D01*
X735786Y821638D01*
X736157Y821453D01*
X736490Y821194D01*
X736508D01*
X736527Y821156D01*
X736620Y821045D01*
X736749Y820879D01*
X736897Y820638D01*
X737045Y820342D01*
X737175Y819971D01*
X737268Y819546D01*
X737305Y819323D01*
Y819064D01*
Y819046D01*
Y819027D01*
Y818953D01*
Y818879D01*
X737286Y818768D01*
X737268Y818638D01*
X737249Y818490D01*
X737231Y818305D01*
Y818287D01*
X737212Y818212D01*
X737194Y818101D01*
X737175Y817953D01*
X737138Y817786D01*
X737101Y817583D01*
X737064Y817342D01*
X737008Y817101D01*
X730398D01*
Y817083D01*
Y817064D01*
X730379Y816953D01*
X730361Y816805D01*
X730342Y816638D01*
Y816620D01*
Y816601D01*
Y816509D01*
X730324Y816361D01*
Y816213D01*
Y816194D01*
Y816157D01*
Y816102D01*
X730342Y816028D01*
X730361Y815824D01*
X730416Y815564D01*
X730491Y815287D01*
X730620Y814990D01*
X730787Y814694D01*
X731009Y814435D01*
X731046Y814417D01*
X731139Y814342D01*
X731287Y814231D01*
X731509Y814120D01*
X731787Y814009D01*
X732120Y813898D01*
X732527Y813824D01*
X732972Y813805D01*
X733120D01*
X733305Y813824D01*
X733527Y813842D01*
X733786Y813879D01*
X734101Y813954D01*
X734435Y814028D01*
X734768Y814139D01*
X734786D01*
X734805Y814157D01*
X734934Y814194D01*
X735101Y814268D01*
X735323Y814380D01*
X735564Y814491D01*
X735842Y814620D01*
X736101Y814768D01*
X736360Y814935D01*
X736453D01*
X736120Y813287D01*
X736101D01*
X736046Y813269D01*
X735972Y813231D01*
X735879Y813213D01*
X735638Y813120D01*
X735379Y813028D01*
X735360D01*
X735323Y813009D01*
X735249Y812991D01*
X735157Y812954D01*
X735046Y812917D01*
X734898Y812880D01*
X734749Y812824D01*
X734564Y812787D01*
X734546D01*
X734490Y812768D01*
X734398Y812750D01*
X734268Y812731D01*
X733990Y812676D01*
X733694Y812620D01*
X733675D01*
X733620Y812602D01*
X733546D01*
X733435Y812583D01*
X733287Y812565D01*
X733120D01*
X732935Y812546D01*
X732546D01*
X732416Y812565D01*
X732268D01*
X732083Y812602D01*
X731879Y812620D01*
X731657Y812657D01*
X731194Y812768D01*
X730713Y812917D01*
X730231Y813139D01*
X730009Y813269D01*
X729805Y813417D01*
X729787Y813435D01*
X729768Y813454D01*
X729713Y813509D01*
X729639Y813583D01*
X729565Y813676D01*
X729472Y813787D01*
X729380Y813917D01*
X729287Y814065D01*
X729176Y814231D01*
X729083Y814417D01*
X728991Y814639D01*
X728917Y814861D01*
X728843Y815120D01*
X728787Y815379D01*
X728768Y815657D01*
X728750Y815972D01*
Y816009D01*
Y816083D01*
X728768Y816213D01*
Y816379D01*
X728806Y816601D01*
X728824Y816842D01*
X728880Y817120D01*
X728954Y817416D01*
X729028Y817749D01*
X729139Y818083D01*
X729250Y818435D01*
X729398Y818786D01*
X729583Y819157D01*
X729787Y819509D01*
X730028Y819860D01*
X730305Y820194D01*
X730324Y820212D01*
X730379Y820268D01*
X730472Y820360D01*
X730583Y820471D01*
X730731Y820601D01*
X730916Y820749D01*
X731139Y820916D01*
X731379Y821083D01*
X731639Y821249D01*
X731935Y821416D01*
X732250Y821564D01*
X732583Y821693D01*
X732953Y821805D01*
X733324Y821897D01*
X733731Y821953D01*
X734157Y821971D01*
X734305D01*
X734416Y821953D01*
D02*
G37*
G36*
X366621Y733591D02*
X366654D01*
X366687Y733587D01*
X366720Y733584D01*
X366753Y733578D01*
X366786Y733573D01*
X367008Y733529D01*
X367040Y733521D01*
X367073Y733514D01*
X367105Y733503D01*
X367137Y733495D01*
X367168Y733482D01*
X367200Y733471D01*
X367409Y733384D01*
X367439Y733370D01*
X367469Y733357D01*
X367498Y733340D01*
X367528Y733326D01*
X367556Y733307D01*
X367585Y733290D01*
X367773Y733165D01*
X367800Y733144D01*
X367827Y733126D01*
X367853Y733104D01*
X367879Y733083D01*
X367902Y733060D01*
X367928Y733038D01*
X368006Y732960D01*
X368085Y732881D01*
X368107Y732856D01*
X368131Y732833D01*
X368151Y732806D01*
X368173Y732781D01*
X368192Y732754D01*
X368212Y732727D01*
X368337Y732541D01*
X368354Y732513D01*
X368372Y732485D01*
X368387Y732455D01*
X368404Y732426D01*
X368417Y732396D01*
X368432Y732366D01*
X368518Y732159D01*
X368529Y732127D01*
X368542Y732097D01*
X368550Y732065D01*
X368561Y732033D01*
X368568Y732000D01*
X368577Y731968D01*
X368621Y731749D01*
X368626Y731716D01*
X368632Y731683D01*
X368634Y731650D01*
X368639Y731617D01*
X368639Y731583D01*
X368641Y731550D01*
X368642Y731439D01*
Y731439D01*
X368642Y731327D01*
X368640Y731294D01*
X368640Y731261D01*
X368636Y731227D01*
X368634Y731194D01*
X368628Y731161D01*
X368623Y731128D01*
X368581Y730909D01*
X368572Y730877D01*
X368566Y730844D01*
X368555Y730812D01*
X368546Y730780D01*
X368534Y730750D01*
X368523Y730718D01*
X368438Y730511D01*
X368424Y730481D01*
X368411Y730450D01*
X368395Y730421D01*
X368380Y730391D01*
X368362Y730364D01*
X368345Y730335D01*
X368222Y730148D01*
X368201Y730122D01*
X368183Y730094D01*
X368161Y730069D01*
X368141Y730042D01*
X368117Y730019D01*
X368095Y729994D01*
X368023Y729921D01*
X367942Y729837D01*
X367917Y729815D01*
X367894Y729791D01*
X367868Y729771D01*
X367843Y729748D01*
X367816Y729730D01*
X367789Y729709D01*
X367597Y729577D01*
X367568Y729560D01*
X367541Y729541D01*
X367511Y729526D01*
X367483Y729509D01*
X367452Y729496D01*
X367422Y729481D01*
X367208Y729389D01*
X367176Y729378D01*
X367146Y729365D01*
X367114Y729356D01*
X367083Y729345D01*
X367050Y729338D01*
X367018Y729329D01*
X366790Y729280D01*
X366757Y729276D01*
X366724Y729269D01*
X366691Y729266D01*
X366658Y729261D01*
X366625Y729261D01*
X366591Y729258D01*
X366475Y729257D01*
X366469Y729257D01*
X366462Y729257D01*
X366462D01*
D01*
X364641Y729257D01*
X364524Y729257D01*
X364491Y729259D01*
X364458D01*
X364425Y729263D01*
X364392Y729266D01*
X364359Y729272D01*
X364326Y729276D01*
X364096Y729322D01*
X364064Y729331D01*
X364031Y729337D01*
X364000Y729348D01*
X363968Y729357D01*
X363937Y729369D01*
X363905Y729380D01*
X363689Y729470D01*
X363659Y729484D01*
X363628Y729497D01*
X363600Y729514D01*
X363569Y729528D01*
X363542Y729547D01*
X363513Y729564D01*
X363318Y729694D01*
X363292Y729714D01*
X363264Y729733D01*
X363239Y729754D01*
X363213Y729775D01*
X363189Y729798D01*
X363164Y729820D01*
X363081Y729903D01*
X363004Y729980D01*
X362982Y730005D01*
X362958Y730029D01*
X362938Y730055D01*
X362916Y730080D01*
X362898Y730108D01*
X362877Y730135D01*
X362756Y730317D01*
X362739Y730346D01*
X362720Y730373D01*
X362705Y730403D01*
X362689Y730432D01*
X362676Y730463D01*
X362662Y730493D01*
X362578Y730695D01*
X362567Y730727D01*
X362554Y730758D01*
X362546Y730790D01*
X362535Y730821D01*
X362528Y730854D01*
X362520Y730886D01*
X362477Y731101D01*
X362473Y731134D01*
X362466Y731167D01*
X362464Y731200D01*
X362460Y731233D01*
Y731266D01*
X362457Y731300D01*
X362457Y731404D01*
X362457Y731503D01*
X362458Y731528D01*
X362458Y731553D01*
X362462Y731595D01*
X362464Y731636D01*
X362469Y731661D01*
X362472Y731685D01*
X362506Y731887D01*
X362512Y731911D01*
X362516Y731936D01*
X362528Y731976D01*
X362538Y732017D01*
X362547Y732040D01*
X362554Y732064D01*
X362624Y732256D01*
X362634Y732279D01*
X362642Y732302D01*
X362661Y732339D01*
X362678Y732378D01*
X362691Y732399D01*
X362702Y732421D01*
X362806Y732598D01*
X362820Y732618D01*
X362832Y732640D01*
X362857Y732673D01*
X362881Y732708D01*
X362897Y732726D01*
X362912Y732746D01*
X362979Y732824D01*
X362986Y732831D01*
X362992Y732839D01*
X363074Y732931D01*
X363098Y732954D01*
X363120Y732979D01*
X363146Y733000D01*
X363169Y733024D01*
X363196Y733044D01*
X363221Y733066D01*
X363418Y733214D01*
X363446Y733232D01*
X363473Y733252D01*
X363502Y733268D01*
X363530Y733286D01*
X363560Y733301D01*
X363589Y733317D01*
X363811Y733424D01*
X363842Y733436D01*
X363872Y733451D01*
X363904Y733461D01*
X363935Y733474D01*
X363967Y733482D01*
X363998Y733492D01*
X364237Y733553D01*
X364270Y733560D01*
X364302Y733568D01*
X364335Y733572D01*
X364368Y733578D01*
X364401Y733580D01*
X364434Y733584D01*
X364557Y733591D01*
X364585Y733590D01*
X364613Y733592D01*
X364614Y733592D01*
X366474Y733593D01*
X366474D01*
X366474D01*
X366587D01*
X366621Y733591D01*
D02*
G37*
G36*
X388497Y733578D02*
X388531D01*
X388564Y733574D01*
X388597Y733571D01*
X388630Y733565D01*
X388663Y733561D01*
X388885Y733516D01*
X388917Y733508D01*
X388950Y733501D01*
X388982Y733490D01*
X389014Y733482D01*
X389044Y733469D01*
X389076Y733458D01*
X389286Y733372D01*
X389316Y733357D01*
X389346Y733344D01*
X389375Y733328D01*
X389405Y733313D01*
X389433Y733294D01*
X389462Y733278D01*
X389650Y733152D01*
X389677Y733131D01*
X389704Y733113D01*
X389729Y733091D01*
X389756Y733071D01*
X389779Y733047D01*
X389804Y733025D01*
X389882Y732947D01*
X389962Y732868D01*
X389984Y732843D01*
X390007Y732820D01*
X390028Y732793D01*
X390050Y732768D01*
X390069Y732741D01*
X390089Y732714D01*
X390214Y732529D01*
X390230Y732500D01*
X390249Y732472D01*
X390264Y732442D01*
X390281Y732413D01*
X390294Y732383D01*
X390308Y732353D01*
X390395Y732146D01*
X390406Y732114D01*
X390419Y732084D01*
X390427Y732052D01*
X390438Y732020D01*
X390445Y731987D01*
X390453Y731955D01*
X390498Y731736D01*
X390502Y731703D01*
X390509Y731670D01*
X390511Y731637D01*
X390516Y731604D01*
X390516Y731571D01*
X390518Y731537D01*
X390518Y731426D01*
Y731426D01*
X390519Y731314D01*
X390517Y731281D01*
X390517Y731248D01*
X390513Y731215D01*
X390510Y731181D01*
X390504Y731149D01*
X390500Y731115D01*
X390457Y730896D01*
X390449Y730864D01*
X390442Y730831D01*
X390432Y730799D01*
X390423Y730767D01*
X390411Y730737D01*
X390400Y730705D01*
X390315Y730498D01*
X390300Y730468D01*
X390288Y730437D01*
X390271Y730408D01*
X390257Y730378D01*
X390238Y730351D01*
X390222Y730322D01*
X390098Y730135D01*
X390078Y730109D01*
X390060Y730081D01*
X390038Y730056D01*
X390018Y730030D01*
X389994Y730006D01*
X389972Y729981D01*
X389899Y729908D01*
X389818Y729825D01*
X389794Y729802D01*
X389771Y729779D01*
X389744Y729758D01*
X389720Y729735D01*
X389692Y729717D01*
X389666Y729696D01*
X389474Y729564D01*
X389445Y729547D01*
X389418Y729528D01*
X389388Y729513D01*
X389359Y729496D01*
X389329Y729483D01*
X389299Y729468D01*
X389085Y729376D01*
X389053Y729365D01*
X389023Y729352D01*
X388991Y729343D01*
X388959Y729332D01*
X388926Y729325D01*
X388894Y729316D01*
X388666Y729268D01*
X388633Y729263D01*
X388601Y729256D01*
X388568Y729253D01*
X388535Y729249D01*
X388501Y729248D01*
X388468Y729246D01*
X388352Y729244D01*
X388345Y729244D01*
X388339Y729244D01*
D01*
X388339D01*
X386518Y729244D01*
X386401Y729244D01*
X386368Y729246D01*
X386334D01*
X386301Y729250D01*
X386268Y729253D01*
X386236Y729259D01*
X386202Y729264D01*
X385973Y729309D01*
X385941Y729318D01*
X385908Y729324D01*
X385876Y729335D01*
X385844Y729344D01*
X385814Y729356D01*
X385782Y729367D01*
X385566Y729457D01*
X385535Y729472D01*
X385505Y729484D01*
X385476Y729501D01*
X385446Y729516D01*
X385418Y729534D01*
X385390Y729551D01*
X385195Y729681D01*
X385168Y729701D01*
X385141Y729720D01*
X385116Y729742D01*
X385089Y729762D01*
X385066Y729786D01*
X385041Y729808D01*
X384958Y729890D01*
X384881Y729967D01*
X384859Y729992D01*
X384835Y730016D01*
X384815Y730043D01*
X384793Y730067D01*
X384774Y730095D01*
X384754Y730122D01*
X384632Y730304D01*
X384616Y730333D01*
X384597Y730360D01*
X384582Y730391D01*
X384566Y730419D01*
X384553Y730450D01*
X384538Y730480D01*
X384454Y730682D01*
X384444Y730714D01*
X384431Y730745D01*
X384422Y730777D01*
X384412Y730808D01*
X384405Y730841D01*
X384396Y730873D01*
X384354Y731088D01*
X384349Y731121D01*
X384343Y731154D01*
X384341Y731187D01*
X384336Y731220D01*
Y731254D01*
X384334Y731287D01*
X384334Y731392D01*
X384333Y731491D01*
X384335Y731515D01*
X384334Y731540D01*
X384339Y731582D01*
X384341Y731624D01*
X384346Y731648D01*
X384348Y731673D01*
X384383Y731874D01*
X384389Y731898D01*
X384393Y731923D01*
X384405Y731963D01*
X384414Y732004D01*
X384423Y732027D01*
X384430Y732051D01*
X384501Y732243D01*
X384511Y732266D01*
X384519Y732289D01*
X384538Y732326D01*
X384555Y732365D01*
X384568Y732386D01*
X384579Y732408D01*
X384683Y732585D01*
X384696Y732605D01*
X384709Y732627D01*
X384734Y732660D01*
X384757Y732695D01*
X384774Y732713D01*
X384789Y732733D01*
X384855Y732811D01*
X384863Y732818D01*
X384869Y732826D01*
X384951Y732918D01*
X384975Y732941D01*
X384997Y732966D01*
X385022Y732988D01*
X385046Y733011D01*
X385073Y733031D01*
X385098Y733053D01*
X385295Y733201D01*
X385323Y733219D01*
X385350Y733239D01*
X385379Y733255D01*
X385407Y733273D01*
X385437Y733288D01*
X385466Y733304D01*
X385688Y733411D01*
X385719Y733423D01*
X385749Y733438D01*
X385780Y733448D01*
X385811Y733461D01*
X385844Y733469D01*
X385875Y733479D01*
X386114Y733541D01*
X386147Y733547D01*
X386179Y733555D01*
X386212Y733559D01*
X386245Y733565D01*
X386278Y733567D01*
X386311Y733571D01*
X386434Y733578D01*
X386462Y733578D01*
X386490Y733579D01*
X386491Y733579D01*
X388350Y733580D01*
X388351D01*
X388351D01*
X388464D01*
X388497Y733578D01*
D02*
G37*
G36*
X388552Y708270D02*
X388585D01*
X388618Y708266D01*
X388651Y708264D01*
X388684Y708257D01*
X388717Y708253D01*
X388939Y708209D01*
X388971Y708200D01*
X389004Y708194D01*
X389036Y708183D01*
X389068Y708174D01*
X389099Y708162D01*
X389130Y708151D01*
X389340Y708064D01*
X389370Y708049D01*
X389400Y708036D01*
X389429Y708020D01*
X389459Y708005D01*
X389487Y707987D01*
X389516Y707970D01*
X389704Y707844D01*
X389731Y707824D01*
X389758Y707805D01*
X389784Y707783D01*
X389810Y707763D01*
X389833Y707740D01*
X389859Y707718D01*
X389936Y707639D01*
X390016Y707561D01*
X390038Y707536D01*
X390061Y707512D01*
X390082Y707486D01*
X390104Y707461D01*
X390123Y707433D01*
X390143Y707407D01*
X390268Y707221D01*
X390285Y707192D01*
X390303Y707164D01*
X390318Y707134D01*
X390335Y707106D01*
X390348Y707075D01*
X390363Y707045D01*
X390449Y706839D01*
X390460Y706807D01*
X390473Y706776D01*
X390481Y706744D01*
X390492Y706712D01*
X390499Y706680D01*
X390508Y706648D01*
X390552Y706428D01*
X390556Y706395D01*
X390563Y706363D01*
X390565Y706329D01*
X390570Y706296D01*
X390570Y706263D01*
X390572Y706230D01*
X390573Y706118D01*
Y706118D01*
X390573Y706007D01*
X390571Y705973D01*
X390571Y705940D01*
X390567Y705907D01*
X390565Y705874D01*
X390558Y705841D01*
X390554Y705808D01*
X390511Y705589D01*
X390503Y705556D01*
X390496Y705524D01*
X390486Y705492D01*
X390477Y705460D01*
X390465Y705429D01*
X390454Y705397D01*
X390369Y705191D01*
X390355Y705160D01*
X390342Y705130D01*
X390326Y705101D01*
X390311Y705071D01*
X390292Y705043D01*
X390276Y705014D01*
X390152Y704828D01*
X390132Y704801D01*
X390114Y704773D01*
X390092Y704749D01*
X390072Y704722D01*
X390048Y704698D01*
X390026Y704673D01*
X389954Y704600D01*
X389873Y704517D01*
X389848Y704495D01*
X389825Y704471D01*
X389798Y704450D01*
X389774Y704428D01*
X389746Y704409D01*
X389720Y704389D01*
X389528Y704257D01*
X389499Y704240D01*
X389472Y704221D01*
X389442Y704206D01*
X389413Y704189D01*
X389383Y704175D01*
X389353Y704160D01*
X389139Y704068D01*
X389107Y704057D01*
X389077Y704044D01*
X389045Y704035D01*
X389013Y704024D01*
X388981Y704017D01*
X388949Y704008D01*
X388721Y703960D01*
X388688Y703955D01*
X388655Y703948D01*
X388622Y703946D01*
X388589Y703941D01*
X388555Y703940D01*
X388522Y703938D01*
X388406Y703936D01*
X388400Y703937D01*
X388393Y703936D01*
D01*
X388393D01*
X386572Y703936D01*
X386455Y703936D01*
X386422Y703939D01*
X386389D01*
X386356Y703943D01*
X386322Y703945D01*
X386290Y703951D01*
X386256Y703956D01*
X386027Y704001D01*
X385995Y704010D01*
X385962Y704017D01*
X385930Y704027D01*
X385898Y704036D01*
X385868Y704049D01*
X385836Y704060D01*
X385620Y704149D01*
X385590Y704164D01*
X385559Y704176D01*
X385530Y704193D01*
X385500Y704208D01*
X385472Y704227D01*
X385444Y704243D01*
X385249Y704373D01*
X385223Y704393D01*
X385195Y704412D01*
X385170Y704434D01*
X385144Y704454D01*
X385120Y704478D01*
X385095Y704500D01*
X385012Y704583D01*
X384935Y704660D01*
X384913Y704685D01*
X384889Y704708D01*
X384869Y704735D01*
X384847Y704760D01*
X384829Y704788D01*
X384808Y704814D01*
X384686Y704996D01*
X384670Y705025D01*
X384651Y705053D01*
X384636Y705083D01*
X384620Y705112D01*
X384607Y705142D01*
X384592Y705172D01*
X384509Y705375D01*
X384498Y705406D01*
X384485Y705437D01*
X384476Y705469D01*
X384466Y705501D01*
X384459Y705534D01*
X384450Y705566D01*
X384408Y705781D01*
X384403Y705814D01*
X384397Y705846D01*
X384395Y705880D01*
X384390Y705913D01*
Y705946D01*
X384388Y705979D01*
X384388Y706084D01*
X384388Y706183D01*
X384389Y706208D01*
X384388Y706232D01*
X384393Y706274D01*
X384395Y706316D01*
X384400Y706340D01*
X384402Y706365D01*
X384437Y706567D01*
X384443Y706591D01*
X384447Y706615D01*
X384459Y706656D01*
X384469Y706696D01*
X384478Y706719D01*
X384485Y706743D01*
X384555Y706935D01*
X384565Y706958D01*
X384573Y706981D01*
X384592Y707019D01*
X384609Y707057D01*
X384622Y707078D01*
X384633Y707100D01*
X384737Y707277D01*
X384751Y707298D01*
X384763Y707319D01*
X384788Y707353D01*
X384811Y707387D01*
X384828Y707406D01*
X384843Y707426D01*
X384910Y707503D01*
X384917Y707510D01*
X384923Y707518D01*
X385005Y707610D01*
X385029Y707633D01*
X385051Y707658D01*
X385076Y707680D01*
X385100Y707703D01*
X385127Y707723D01*
X385152Y707745D01*
X385349Y707893D01*
X385377Y707911D01*
X385404Y707931D01*
X385433Y707948D01*
X385461Y707966D01*
X385491Y707980D01*
X385520Y707997D01*
X385742Y708103D01*
X385773Y708116D01*
X385803Y708130D01*
X385834Y708140D01*
X385865Y708153D01*
X385898Y708161D01*
X385929Y708172D01*
X386168Y708233D01*
X386201Y708239D01*
X386233Y708247D01*
X386266Y708251D01*
X386299Y708258D01*
X386332Y708260D01*
X386365Y708263D01*
X386488Y708270D01*
X386516Y708270D01*
X386544Y708272D01*
X386545Y708272D01*
X388405Y708272D01*
X388405D01*
X388405D01*
X388518D01*
X388552Y708270D01*
D02*
G37*
G36*
X366612Y708251D02*
X366645D01*
X366678Y708247D01*
X366711Y708244D01*
X366744Y708238D01*
X366777Y708233D01*
X366999Y708189D01*
X367031Y708181D01*
X367064Y708174D01*
X367096Y708163D01*
X367128Y708155D01*
X367159Y708142D01*
X367191Y708131D01*
X367400Y708045D01*
X367430Y708030D01*
X367461Y708017D01*
X367489Y708000D01*
X367519Y707986D01*
X367547Y707967D01*
X367576Y707951D01*
X367765Y707825D01*
X367791Y707804D01*
X367818Y707786D01*
X367844Y707764D01*
X367870Y707744D01*
X367893Y707720D01*
X367919Y707698D01*
X367997Y707620D01*
X368076Y707541D01*
X368098Y707516D01*
X368122Y707493D01*
X368142Y707466D01*
X368164Y707441D01*
X368183Y707414D01*
X368203Y707387D01*
X368328Y707202D01*
X368345Y707173D01*
X368364Y707145D01*
X368378Y707115D01*
X368395Y707086D01*
X368408Y707056D01*
X368423Y707026D01*
X368509Y706819D01*
X368520Y706787D01*
X368533Y706757D01*
X368542Y706725D01*
X368552Y706693D01*
X368559Y706660D01*
X368568Y706628D01*
X368612Y706409D01*
X368617Y706376D01*
X368623Y706343D01*
X368625Y706310D01*
X368630Y706277D01*
X368630Y706243D01*
X368632Y706210D01*
X368633Y706099D01*
Y706099D01*
X368633Y705987D01*
X368631Y705954D01*
X368631Y705921D01*
X368627Y705888D01*
X368625Y705854D01*
X368619Y705822D01*
X368614Y705788D01*
X368572Y705569D01*
X368563Y705537D01*
X368557Y705504D01*
X368546Y705472D01*
X368538Y705440D01*
X368525Y705410D01*
X368514Y705378D01*
X368430Y705171D01*
X368415Y705141D01*
X368402Y705110D01*
X368386Y705081D01*
X368371Y705051D01*
X368353Y705024D01*
X368336Y704995D01*
X368213Y704809D01*
X368192Y704782D01*
X368174Y704754D01*
X368152Y704729D01*
X368132Y704703D01*
X368108Y704679D01*
X368086Y704654D01*
X368014Y704581D01*
X367933Y704498D01*
X367908Y704475D01*
X367885Y704452D01*
X367859Y704431D01*
X367834Y704408D01*
X367807Y704390D01*
X367780Y704369D01*
X367588Y704237D01*
X367559Y704220D01*
X367532Y704201D01*
X367502Y704186D01*
X367474Y704169D01*
X367443Y704156D01*
X367413Y704141D01*
X367199Y704049D01*
X367168Y704038D01*
X367137Y704025D01*
X367105Y704016D01*
X367074Y704005D01*
X367041Y703998D01*
X367009Y703989D01*
X366781Y703941D01*
X366748Y703936D01*
X366715Y703929D01*
X366682Y703926D01*
X366649Y703921D01*
X366616Y703921D01*
X366582Y703918D01*
X366466Y703917D01*
X366460Y703917D01*
X366454Y703917D01*
X366454D01*
D01*
X364632Y703917D01*
X364515Y703917D01*
X364482Y703919D01*
X364449D01*
X364416Y703923D01*
X364383Y703926D01*
X364350Y703932D01*
X364317Y703936D01*
X364087Y703982D01*
X364055Y703991D01*
X364022Y703997D01*
X363991Y704008D01*
X363959Y704016D01*
X363928Y704029D01*
X363896Y704040D01*
X363680Y704130D01*
X363650Y704144D01*
X363619Y704157D01*
X363591Y704174D01*
X363560Y704189D01*
X363533Y704207D01*
X363504Y704224D01*
X363309Y704354D01*
X363283Y704374D01*
X363255Y704393D01*
X363230Y704415D01*
X363204Y704435D01*
X363180Y704458D01*
X363155Y704481D01*
X363072Y704563D01*
X362995Y704640D01*
X362973Y704665D01*
X362949Y704689D01*
X362929Y704715D01*
X362907Y704740D01*
X362889Y704768D01*
X362868Y704795D01*
X362747Y704977D01*
X362730Y705006D01*
X362711Y705033D01*
X362697Y705063D01*
X362680Y705092D01*
X362667Y705123D01*
X362653Y705153D01*
X362569Y705355D01*
X362558Y705387D01*
X362545Y705418D01*
X362537Y705450D01*
X362526Y705481D01*
X362519Y705514D01*
X362511Y705546D01*
X362468Y705761D01*
X362464Y705794D01*
X362457Y705827D01*
X362455Y705860D01*
X362451Y705893D01*
Y705927D01*
X362449Y705960D01*
X362449Y706065D01*
X362448Y706163D01*
X362449Y706188D01*
X362449Y706213D01*
X362453Y706255D01*
X362455Y706296D01*
X362460Y706321D01*
X362463Y706345D01*
X362498Y706547D01*
X362503Y706571D01*
X362507Y706596D01*
X362519Y706636D01*
X362529Y706677D01*
X362538Y706700D01*
X362545Y706724D01*
X362615Y706916D01*
X362625Y706939D01*
X362633Y706962D01*
X362652Y706999D01*
X362669Y707038D01*
X362682Y707059D01*
X362693Y707081D01*
X362797Y707258D01*
X362811Y707278D01*
X362823Y707300D01*
X362848Y707333D01*
X362872Y707368D01*
X362888Y707386D01*
X362903Y707406D01*
X362970Y707484D01*
X362977Y707491D01*
X362983Y707499D01*
X363065Y707591D01*
X363089Y707614D01*
X363111Y707639D01*
X363137Y707661D01*
X363160Y707684D01*
X363187Y707704D01*
X363212Y707726D01*
X363410Y707874D01*
X363437Y707892D01*
X363464Y707912D01*
X363493Y707928D01*
X363521Y707946D01*
X363551Y707961D01*
X363580Y707977D01*
X363802Y708084D01*
X363833Y708096D01*
X363863Y708111D01*
X363895Y708121D01*
X363926Y708134D01*
X363958Y708142D01*
X363990Y708152D01*
X364228Y708214D01*
X364261Y708220D01*
X364293Y708228D01*
X364326Y708232D01*
X364359Y708238D01*
X364392Y708240D01*
X364425Y708244D01*
X364548Y708251D01*
X364576Y708251D01*
X364605Y708252D01*
X364605Y708252D01*
X366465Y708253D01*
X366465D01*
X366465D01*
X366578D01*
X366612Y708251D01*
D02*
G37*
G36*
X329233Y708459D02*
X329364Y708434D01*
X329490Y708391D01*
X329609Y708332D01*
X329720Y708258D01*
X329820Y708170D01*
X329908Y708070D01*
X329982Y707959D01*
X330041Y707840D01*
X330084Y707713D01*
X330109Y707583D01*
X330118Y707450D01*
Y689150D01*
X330109Y689017D01*
X330084Y688886D01*
X330041Y688760D01*
X329982Y688641D01*
X329908Y688530D01*
X329820Y688430D01*
X329720Y688342D01*
X329609Y688268D01*
X329490Y688209D01*
X329364Y688167D01*
X329233Y688140D01*
X329100Y688132D01*
X296600D01*
X296467Y688140D01*
X296336Y688167D01*
X296210Y688209D01*
X296091Y688268D01*
X295980Y688342D01*
X295880Y688430D01*
X295792Y688530D01*
X295718Y688641D01*
X295659Y688760D01*
X295616Y688886D01*
X295590Y689017D01*
X295582Y689150D01*
Y702150D01*
X295590Y702283D01*
X295616Y702413D01*
X295659Y702540D01*
X295718Y702659D01*
X295792Y702770D01*
X295880Y702870D01*
X295980Y702958D01*
X296091Y703032D01*
X296210Y703091D01*
X296336Y703133D01*
X296467Y703159D01*
X296600Y703168D01*
X321082D01*
Y707450D01*
X321091Y707583D01*
X321116Y707713D01*
X321159Y707840D01*
X321218Y707959D01*
X321292Y708070D01*
X321380Y708170D01*
X321480Y708258D01*
X321591Y708332D01*
X321710Y708391D01*
X321837Y708434D01*
X321967Y708459D01*
X322100Y708468D01*
X329100D01*
X329233Y708459D01*
D02*
G37*
G36*
X346333Y708410D02*
X346464Y708383D01*
X346590Y708341D01*
X346709Y708282D01*
X346820Y708208D01*
X346920Y708120D01*
X347008Y708020D01*
X347082Y707909D01*
X347141Y707790D01*
X347183Y707663D01*
X347210Y707533D01*
X347218Y707400D01*
Y687400D01*
X347210Y687267D01*
X347183Y687137D01*
X347141Y687010D01*
X347082Y686891D01*
X347008Y686780D01*
X346920Y686680D01*
X346820Y686592D01*
X346709Y686518D01*
X346590Y686459D01*
X346464Y686416D01*
X346333Y686391D01*
X346200Y686382D01*
X332200D01*
X332067Y686391D01*
X331936Y686416D01*
X331810Y686459D01*
X331691Y686518D01*
X331580Y686592D01*
X331480Y686680D01*
X331392Y686780D01*
X331318Y686891D01*
X331259Y687010D01*
X331217Y687137D01*
X331190Y687267D01*
X331182Y687400D01*
Y707400D01*
X331190Y707533D01*
X331217Y707663D01*
X331259Y707790D01*
X331318Y707909D01*
X331392Y708020D01*
X331480Y708120D01*
X331580Y708208D01*
X331691Y708282D01*
X331810Y708341D01*
X331936Y708383D01*
X332067Y708410D01*
X332200Y708418D01*
X346200D01*
X346333Y708410D01*
D02*
G37*
G36*
Y650409D02*
X346464Y650384D01*
X346590Y650341D01*
X346709Y650282D01*
X346820Y650208D01*
X346920Y650120D01*
X347008Y650020D01*
X347082Y649909D01*
X347141Y649790D01*
X347183Y649663D01*
X347210Y649533D01*
X347218Y649400D01*
Y629400D01*
X347210Y629267D01*
X347183Y629137D01*
X347141Y629010D01*
X347082Y628891D01*
X347008Y628780D01*
X346920Y628680D01*
X346820Y628592D01*
X346709Y628518D01*
X346590Y628459D01*
X346464Y628416D01*
X346333Y628391D01*
X346200Y628382D01*
X332200D01*
X332067Y628391D01*
X331936Y628416D01*
X331810Y628459D01*
X331691Y628518D01*
X331580Y628592D01*
X331480Y628680D01*
X331392Y628780D01*
X331318Y628891D01*
X331259Y629010D01*
X331217Y629137D01*
X331190Y629267D01*
X331182Y629400D01*
Y649400D01*
X331190Y649533D01*
X331217Y649663D01*
X331259Y649790D01*
X331318Y649909D01*
X331392Y650020D01*
X331480Y650120D01*
X331580Y650208D01*
X331691Y650282D01*
X331810Y650341D01*
X331936Y650384D01*
X332067Y650409D01*
X332200Y650418D01*
X346200D01*
X346333Y650409D01*
D02*
G37*
G36*
X329233Y648660D02*
X329364Y648633D01*
X329490Y648591D01*
X329609Y648532D01*
X329720Y648458D01*
X329820Y648370D01*
X329908Y648270D01*
X329982Y648159D01*
X330041Y648040D01*
X330084Y647914D01*
X330109Y647783D01*
X330118Y647650D01*
Y629350D01*
X330109Y629217D01*
X330084Y629086D01*
X330041Y628960D01*
X329982Y628841D01*
X329908Y628730D01*
X329820Y628630D01*
X329720Y628542D01*
X329609Y628468D01*
X329490Y628409D01*
X329364Y628367D01*
X329233Y628340D01*
X329100Y628332D01*
X322100D01*
X321967Y628340D01*
X321837Y628367D01*
X321710Y628409D01*
X321591Y628468D01*
X321480Y628542D01*
X321380Y628630D01*
X321292Y628730D01*
X321218Y628841D01*
X321159Y628960D01*
X321116Y629086D01*
X321091Y629217D01*
X321082Y629350D01*
Y633632D01*
X296600D01*
X296467Y633641D01*
X296336Y633666D01*
X296210Y633709D01*
X296091Y633768D01*
X295980Y633842D01*
X295880Y633930D01*
X295792Y634030D01*
X295718Y634141D01*
X295659Y634260D01*
X295616Y634386D01*
X295590Y634517D01*
X295582Y634650D01*
Y647650D01*
X295590Y647783D01*
X295616Y647914D01*
X295659Y648040D01*
X295718Y648159D01*
X295792Y648270D01*
X295880Y648370D01*
X295980Y648458D01*
X296091Y648532D01*
X296210Y648591D01*
X296336Y648633D01*
X296467Y648660D01*
X296600Y648668D01*
X329100D01*
X329233Y648660D01*
D02*
G37*
G36*
X860380Y581180D02*
X860200Y581650D01*
X859660Y582070D01*
X858760Y582440D01*
X857500Y582761D01*
X855880Y583033D01*
X853900Y583255D01*
X848860Y583551D01*
X842380Y583650D01*
Y601650D01*
X845800Y601675D01*
X857500Y602539D01*
X858760Y602860D01*
X859660Y603231D01*
X860200Y603650D01*
X860380Y604119D01*
Y581180D01*
D02*
G37*
%LPC*%
G36*
X733842Y820768D02*
X733731D01*
X733657Y820749D01*
X733435Y820731D01*
X733176Y820675D01*
X732861Y820601D01*
X732509Y820471D01*
X732157Y820305D01*
X731824Y820064D01*
X731805D01*
X731787Y820027D01*
X731676Y819934D01*
X731527Y819786D01*
X731342Y819564D01*
X731139Y819305D01*
X730935Y818990D01*
X730768Y818620D01*
X730620Y818212D01*
X735768D01*
Y818231D01*
Y818249D01*
X735786Y818342D01*
X735805Y818472D01*
X735823Y818583D01*
Y818620D01*
X735842Y818694D01*
Y818805D01*
Y818953D01*
Y818972D01*
Y818990D01*
Y819101D01*
X735823Y819249D01*
X735786Y819435D01*
X735731Y819657D01*
X735638Y819879D01*
X735527Y820083D01*
X735360Y820286D01*
X735342Y820305D01*
X735268Y820360D01*
X735157Y820434D01*
X734990Y820527D01*
X734786Y820620D01*
X734527Y820694D01*
X734212Y820749D01*
X733842Y820768D01*
D02*
G37*
%LPD*%
D52*
X903200Y700500D02*
X906250Y697450D01*
X799700Y700500D02*
X903200D01*
X906250Y592450D02*
Y697450D01*
X792850Y592650D02*
X869350D01*
D107*
X607819Y459360D02*
G03*
X607819Y459360I-2794J0D01*
G01*
X672569Y459400D02*
G03*
X672569Y459400I-2794J0D01*
G01*
X657745D02*
G03*
X657745Y459400I-2794J0D01*
G01*
X657186D02*
G03*
X657186Y459400I-2794J0D01*
G01*
X591644Y408625D02*
G03*
X591644Y408625I-2794J0D01*
G01*
X567644Y408551D02*
G03*
X567644Y408551I-2794J0D01*
G01*
X695115Y487200D02*
G03*
X695115Y487200I-2794J0D01*
G01*
X695673D02*
G03*
X695673Y487200I-2794J0D01*
G01*
D108*
X724900Y656100D02*
D03*
X714900D02*
D03*
X737100Y633700D02*
D03*
X727100D02*
D03*
X541700Y768000D02*
D03*
X551700D02*
D03*
X659300Y781200D02*
D03*
X649300D02*
D03*
X701150Y423635D02*
D03*
X691150D02*
D03*
X701150Y469185D02*
D03*
X691150D02*
D03*
X636400Y423635D02*
D03*
X626400D02*
D03*
X636400Y469185D02*
D03*
X626400D02*
D03*
X573650Y423635D02*
D03*
X563650D02*
D03*
X573650Y469185D02*
D03*
X563650D02*
D03*
X511400Y423635D02*
D03*
X501400D02*
D03*
X511400Y469185D02*
D03*
X501400D02*
D03*
X452050Y472300D02*
D03*
X442050D02*
D03*
D109*
X760600Y669300D02*
D03*
Y642700D02*
D03*
D110*
X745400Y656000D02*
D03*
D111*
X736900Y654100D02*
D03*
Y645100D02*
D03*
D112*
X346750Y393500D02*
D03*
X336750D02*
D03*
X341750Y405000D02*
D03*
X377450Y684500D02*
D03*
X367450D02*
D03*
X372450Y696000D02*
D03*
D113*
X346500Y383500D02*
D03*
X337000D02*
D03*
X681050Y411234D02*
D03*
X690550D02*
D03*
X700800Y411184D02*
D03*
X710300D02*
D03*
X766600Y700450D02*
D03*
X776100D02*
D03*
X407750Y631550D02*
D03*
X417250D02*
D03*
X407800Y641650D02*
D03*
X417300D02*
D03*
X408850Y473300D02*
D03*
X418350D02*
D03*
X337100Y426850D02*
D03*
X346600D02*
D03*
X335400Y717900D02*
D03*
X325900D02*
D03*
X423200Y655900D02*
D03*
X413700D02*
D03*
X337150Y415000D02*
D03*
X346650D02*
D03*
D114*
X608174Y459360D02*
D03*
X601926D02*
D03*
X666676Y459400D02*
D03*
X672924D02*
D03*
X658050D02*
D03*
X651294D02*
D03*
X588850Y405476D02*
D03*
Y411724D02*
D03*
X564850Y405402D02*
D03*
Y411650D02*
D03*
X689222Y487200D02*
D03*
X695978D02*
D03*
D115*
X786000Y698300D02*
D03*
Y688800D02*
D03*
X756600Y698300D02*
D03*
Y688800D02*
D03*
X706700Y698850D02*
D03*
Y689350D02*
D03*
X408650Y462500D02*
D03*
Y453000D02*
D03*
X358000Y687450D02*
D03*
Y696950D02*
D03*
X386850Y695700D02*
D03*
Y686200D02*
D03*
X344750Y738350D02*
D03*
Y728850D02*
D03*
X398850Y472300D02*
D03*
Y462800D02*
D03*
X347300Y354750D02*
D03*
Y364250D02*
D03*
D116*
X359150Y650350D02*
D03*
D117*
Y633350D02*
D03*
X381150D02*
D03*
Y652350D02*
D03*
D118*
X906250Y592450D02*
D03*
X869350Y592650D02*
D03*
X905950Y365350D02*
D03*
X868950D02*
D03*
D119*
X315650Y359800D02*
D03*
D120*
X380250Y669050D02*
D03*
D121*
X360500Y669050D02*
D03*
D122*
X417450Y706720D02*
D03*
Y673700D02*
D03*
X387550Y748430D02*
D03*
Y781450D02*
D03*
X356750D02*
D03*
Y748430D02*
D03*
X419650Y725500D02*
D03*
Y758520D02*
D03*
D123*
X353750Y715790D02*
D03*
Y705790D02*
D03*
X369150Y501900D02*
D03*
Y491900D02*
D03*
X682300Y771150D02*
D03*
Y781150D02*
D03*
X398100Y710577D02*
D03*
Y700577D02*
D03*
X397950Y721500D02*
D03*
Y731500D02*
D03*
X354100Y728600D02*
D03*
Y738600D02*
D03*
X672450Y781050D02*
D03*
Y771050D02*
D03*
X416850Y501850D02*
D03*
Y491850D02*
D03*
X405150Y501950D02*
D03*
Y491950D02*
D03*
X418850Y453050D02*
D03*
Y463050D02*
D03*
X392433Y501800D02*
D03*
Y491800D02*
D03*
X380550Y501950D02*
D03*
Y491950D02*
D03*
D124*
X414500Y566250D02*
D03*
Y540850D02*
D03*
Y591650D02*
D03*
X296400Y541050D02*
D03*
Y591850D02*
D03*
Y566450D02*
D03*
D125*
X355400Y619450D02*
D03*
Y513450D02*
D03*
D126*
X301700Y417200D02*
D03*
X321200D02*
D03*
X301800Y386000D02*
D03*
X321300D02*
D03*
D127*
X742550Y700600D02*
D03*
X719350D02*
D03*
D128*
X740450Y690350D02*
D03*
Y710850D02*
D03*
X721450D02*
D03*
Y690350D02*
D03*
D129*
X306100Y658800D02*
D03*
Y678000D02*
D03*
D130*
X337900Y655400D02*
D03*
Y661900D02*
D03*
Y668400D02*
D03*
Y674900D02*
D03*
Y681400D02*
D03*
D131*
X649400Y770600D02*
D03*
X663900D02*
D03*
D132*
X468800Y750500D02*
D03*
X483800D02*
D03*
X498800D02*
D03*
X513800D02*
D03*
X528800D02*
D03*
X543800D02*
D03*
X589800D02*
D03*
X604800D02*
D03*
X619800D02*
D03*
X634800D02*
D03*
X649800D02*
D03*
X664800D02*
D03*
Y515500D02*
D03*
X649800D02*
D03*
X634800D02*
D03*
X619800D02*
D03*
X604800D02*
D03*
X589800D02*
D03*
X543800D02*
D03*
X528800D02*
D03*
X513800D02*
D03*
X498800D02*
D03*
X483800D02*
D03*
X468800D02*
D03*
D133*
X684300Y731000D02*
D03*
Y716000D02*
D03*
Y701000D02*
D03*
Y686000D02*
D03*
Y671000D02*
D03*
Y656000D02*
D03*
Y610000D02*
D03*
Y595000D02*
D03*
Y580000D02*
D03*
Y565000D02*
D03*
Y550000D02*
D03*
Y535000D02*
D03*
X449300D02*
D03*
Y550000D02*
D03*
Y565000D02*
D03*
Y580000D02*
D03*
Y595000D02*
D03*
Y610000D02*
D03*
Y656000D02*
D03*
Y671000D02*
D03*
Y686000D02*
D03*
Y701000D02*
D03*
Y716000D02*
D03*
Y731000D02*
D03*
D134*
X682050Y626750D02*
D03*
Y639250D02*
D03*
X451550Y626750D02*
D03*
Y639250D02*
D03*
D135*
X560550Y748250D02*
D03*
X573050D02*
D03*
Y517750D02*
D03*
X560550D02*
D03*
D136*
X366500Y704500D02*
D03*
X386500D02*
D03*
Y733000D02*
D03*
X366500D02*
D03*
D137*
X371500Y704500D02*
D03*
X376500D02*
D03*
X381500D02*
D03*
Y733000D02*
D03*
X376500D02*
D03*
X371500D02*
D03*
D138*
X376500Y718750D02*
D03*
D139*
X442950Y453050D02*
D03*
Y458050D02*
D03*
Y463050D02*
D03*
X428950Y462950D02*
D03*
Y457950D02*
D03*
Y452950D02*
D03*
D140*
X701200Y434335D02*
D03*
X691700D02*
D03*
X682200D02*
D03*
Y458335D02*
D03*
X691700D02*
D03*
X701200D02*
D03*
X573900Y434335D02*
D03*
X564400D02*
D03*
X554900D02*
D03*
Y458335D02*
D03*
X564400D02*
D03*
X573900D02*
D03*
X636850Y434335D02*
D03*
X627350D02*
D03*
X617850D02*
D03*
Y458335D02*
D03*
X627350D02*
D03*
X636850D02*
D03*
X511700Y434335D02*
D03*
X502200D02*
D03*
X492700D02*
D03*
Y458335D02*
D03*
X502200D02*
D03*
X511700D02*
D03*
D141*
X369100Y359500D02*
D03*
X357600Y364500D02*
D03*
Y354500D02*
D03*
D142*
X540000Y781700D02*
D03*
X456100Y437550D02*
D03*
X421300Y405450D02*
D03*
X626850Y341000D02*
D03*
X601350Y340800D02*
D03*
X383940Y341650D02*
D03*
X358700Y341900D02*
D03*
X405000Y655900D02*
D03*
X708300Y469150D02*
D03*
D143*
X771300Y815600D02*
D03*
X305100Y318200D02*
D03*
D144*
X726820Y771950D02*
D03*
X693800D02*
D03*
D145*
X589800Y506125D02*
D03*
X619800D02*
D03*
X649800D02*
D03*
X664800D02*
D03*
X634800D02*
D03*
X604800D02*
D03*
X468800D02*
D03*
X498800D02*
D03*
X528800D02*
D03*
X543800D02*
D03*
X513800D02*
D03*
X483800D02*
D03*
X589800Y759875D02*
D03*
X619800D02*
D03*
X649800D02*
D03*
X664800D02*
D03*
X634800D02*
D03*
X604800D02*
D03*
X483800D02*
D03*
X513800D02*
D03*
X543800D02*
D03*
X528800D02*
D03*
X498800D02*
D03*
X468800D02*
D03*
D146*
X694299Y610000D02*
D03*
X694300Y595000D02*
D03*
Y565000D02*
D03*
X694299Y580000D02*
D03*
Y535000D02*
D03*
X694300Y550000D02*
D03*
Y731000D02*
D03*
X694299Y716000D02*
D03*
Y686000D02*
D03*
X694300Y701000D02*
D03*
Y656000D02*
D03*
X694300Y671000D02*
D03*
X439300Y610000D02*
D03*
X439300Y595000D02*
D03*
Y565000D02*
D03*
X439300Y580000D02*
D03*
Y535000D02*
D03*
X439300Y550000D02*
D03*
X439300Y671000D02*
D03*
X439300Y656000D02*
D03*
Y701000D02*
D03*
X439300Y686000D02*
D03*
Y716000D02*
D03*
X439300Y731000D02*
D03*
D147*
X694300Y626750D02*
D03*
Y639250D02*
D03*
X439300Y626750D02*
D03*
Y639250D02*
D03*
D148*
X560550Y760500D02*
D03*
X573050D02*
D03*
X573050Y505500D02*
D03*
X560550D02*
D03*
D149*
X816670Y643100D02*
D03*
X832600Y803010D02*
D03*
X311900Y472810D02*
D03*
Y752810D02*
D03*
X816670Y483100D02*
D03*
X819900Y320410D02*
D03*
D150*
X313900Y610450D02*
D03*
X396900Y520450D02*
D03*
X308600Y641150D02*
D03*
Y695650D02*
D03*
X338700Y692650D02*
D03*
X339100Y644150D02*
D03*
D151*
X555750Y320400D02*
D03*
X337300Y320410D02*
D03*
X464300Y803010D02*
D03*
X398300Y360500D02*
D03*
X692900Y803010D02*
D03*
D152*
X581150Y320400D02*
D03*
X631950D02*
D03*
X657350D02*
D03*
X682750D02*
D03*
X708150D02*
D03*
X733550D02*
D03*
X758950D02*
D03*
X784350D02*
D03*
X606550D02*
D03*
X362700Y320410D02*
D03*
X388100D02*
D03*
X413500D02*
D03*
X438900D02*
D03*
X464300D02*
D03*
X489700D02*
D03*
X515100D02*
D03*
X438900Y803010D02*
D03*
X413500D02*
D03*
X388100D02*
D03*
X362700D02*
D03*
X337300D02*
D03*
X753900Y385900D02*
D03*
Y360500D02*
D03*
X728500Y385900D02*
D03*
Y360500D02*
D03*
X703100Y385900D02*
D03*
Y360500D02*
D03*
X677700Y385900D02*
D03*
Y360500D02*
D03*
X652300Y385900D02*
D03*
Y360500D02*
D03*
X626900Y385900D02*
D03*
Y360500D02*
D03*
X601500Y385900D02*
D03*
Y360500D02*
D03*
X576100Y385900D02*
D03*
Y360500D02*
D03*
X550700Y385900D02*
D03*
Y360500D02*
D03*
X525300Y385900D02*
D03*
Y360500D02*
D03*
X499900Y385900D02*
D03*
Y360500D02*
D03*
X474500Y385900D02*
D03*
Y360500D02*
D03*
X449100Y385900D02*
D03*
Y360500D02*
D03*
X423700Y385900D02*
D03*
Y360500D02*
D03*
X398300Y385900D02*
D03*
X667500Y803010D02*
D03*
X642100D02*
D03*
X616700D02*
D03*
X591300D02*
D03*
X565900D02*
D03*
X540500D02*
D03*
X515100D02*
D03*
D153*
X376500Y713250D02*
D03*
Y724250D02*
D03*
X371000Y718750D02*
D03*
X382000D02*
D03*
M02*
