M48
;Layer_Color=9474304
;FILE_FORMAT=2:5
INCH,LZ
;TYPE=PLATED
T1F00S00C0.00591
T2F00S00C0.00787
T5F00S00C0.03543
;TYPE=NON_PLATED
T6F00S00C0.02756
T7F00S00C0.03543
T8F00S00C0.12600
T9F00S00C0.27559
%
T01
X0115256Y0118327
X012128
X0127953Y0118228
X013628
X0144606
X0152933
X0150138Y0148031
X0147658Y0148799
X0138819Y0136811
X0114606Y0136653
Y014498
X0114646Y0155217
X0114606Y0128327
X016126Y0118228
X0169587
X0177913
X018624
X0194567
X0202894
X0211221
X0210846Y0126398
X0222047Y0118228
X0227874
X0236201
X0244528
X0252854
X0261181
X0269508
X0277835
X0286161
X0294488
X0302815
X0311142
X0311102Y0120452
Y0132263
Y01362
Y0140137
Y0144074
Y0148011
Y0151948
Y0155885
X0300787Y0154685
Y0146811
Y0138937
Y0131063
X0292756Y0130945
X0292402Y0137835
X027311Y0131673
X0257539Y0158681
X0247244Y0159055
X0237008Y0158425
X024689Y0172933
X0252854Y0180276
X0254784Y0187323
X025614Y0195177
X0261791Y0197165
X025002Y0197146
X0244055
X0238071Y0197106
X0234764Y019498
X022374Y0194744
X0225866Y0187284
X0221752Y0186811
X0222185Y0173228
X0200335Y0174193
X0193622Y0167362
X0193976Y0183209
X0195224Y0185787
X0197323Y0190335
X0193957Y0191476
X0201831Y0190335
Y0188504
X0178091Y0189193
X0173917Y0190335
X0167165Y0186299
X0159508Y0190256
X0156614Y0188484
X0157736Y0199252
X0162362Y0199094
X0165748Y0200472
X0167228Y0197992
X0169016Y0197973
X017815Y0178386
X0179567Y0175315
X017315Y0167854
X0156653Y017063
X0168366Y0228386
Y0234961
X0168347Y0240335
X0168366Y0245984
X0166634Y0249488
Y0251358
X0168976Y0257146
X0168839Y025874
X0170354Y025811
X0168287Y0281988
X0160512Y0281968
X0156614Y0281988
X0176181Y0296102
X019Y0284291
X0196299Y0287146
X0198858Y0287127
X0207185Y0274153
X0215748Y0274449
X0224291Y0270866
X0225039Y0254784
X024061Y0254567
X0240768Y0267736
X0238307Y0281535
X0254331Y028498
X026189Y0286772
X026191Y0282362
X026435Y0279134
X0262618Y0276142
X0264547Y0272756
X0262539Y0270354
Y0264469
X0264419Y0261476
X0262559Y0258327
X0264488Y0255098
X0270551Y0254685
X0275945Y0254646
X0279626
X0283287
X0287264
X0292677Y0254685
X0290571Y0261968
X0287047
X0283445
X0279626
X0275945
X0276057Y0267264
X0275453Y0270807
X0282716Y0270197
X0281693Y0267264
X0288858
X0291535Y0270118
X0294764Y0271201
X029563Y0267264
X0299882
X0303937
X0306319Y0271102
X030126
X0299961Y0279547
X0303681
X0308228
X0310748Y0281811
Y0285748
X0311102Y0289744
Y0293681
Y0297618
Y0301555
Y0305492
Y0309429
X0302539Y0309862
Y0301988
Y0294114
X0300571Y0288465
X0296634
X0292539
X0288386
X0283976
X0280039
X0275945
X0276043Y0283051
Y0280728
X0280138Y028313
X0284075Y0283169
X028811Y0281752
X0291693Y0283327
X0296122Y0279547
X0301693Y0283405
X030498Y0288465
X0294213Y0294114
Y0301988
X0290846Y0300354
X0290728Y0308071
X0294213Y0309862
X0277559
Y0301988
Y0294114
X0285886
X0287756Y0271988
X0310295Y0267697
Y026376
X0306378Y0263484
Y0258563
Y0253425
X0306476Y024687
X0303307Y0249075
X0296831Y0249153
X0300787Y0241299
Y0233425
Y0225551
Y0217677
Y0209803
Y0201929
Y0194055
Y0186181
Y0178307
Y0170433
Y0162559
X0292756Y0162441
Y0170315
Y0178189
Y0186063
Y0193937
Y0201811
Y0209685
Y0217559
Y0225433
Y0233307
Y0241181
X0282067Y0245433
X0276083Y0248898
Y0241024
Y023315
Y0225276
X0274902Y0222756
X0275413Y0216575
X0276083Y0209527
X0272874Y0207579
X027559Y0201654
X0284114Y0201772
Y0209646
Y021752
Y0225394
Y0233268
X0263311Y023435
X0263169Y024002
X0263311Y0228404
X025065Y023124
X0235098Y0231224
X0233268Y0218349
X0230965Y0213071
X0232382Y021126
X0222854Y0209764
X0221004Y0218189
X0215276Y021252
X0213701Y0213996
X0212224Y021252
X0210728Y0213996
X0209252Y021252
X0207766Y0213991
X0206279Y021252
X0204803Y0213991
X0203327Y021252
X0201831Y0213996
X0200354Y021252
X0198819Y021403
X0197264Y021252
X0195768Y0213991
X0193957Y0207146
X0207165Y0224035
X0209488Y0224862
X0211024Y0226496
X0213169Y0226949
X0215728Y0229311
X0204862Y0231732
X0200413Y0239882
Y0251201
X0200315Y0262323
X0203386Y0268583
X0217205Y0302362
X0242992Y0305118
X0262559Y0307579
X0256673Y0274055
X025378Y0254823
X0258189Y0213504
X0241437Y0213563
X0242992Y0184783
X0259016Y0169843
X0284724Y0170197
Y0178071
Y0185945
Y0193819
X0276693Y0193701
X0278307Y0189291
X0311102Y0178858
Y017557
Y0171633
Y0167696
Y0163759
Y0159822
Y020313
Y0207067
Y0211004
Y0214941
Y0218878
Y0222815
Y0226752
Y0230689
Y0234626
Y0238563
X0308681Y0242736
X0223524Y0236358
X015748Y0240216
X015298Y0241614
X015283Y0246638
X0154882Y0246398
X0147598Y0247244
X0144213Y0247185
X0145945Y0254764
X0142047Y0268189
X0128583Y026563
X0128563Y026309
X0133839Y0247756
X0137953Y0233425
X0142323Y0237795
X0143134Y0227224
X014811Y0231791
X0148721Y0214761
X0156102Y0209882
X0153012Y0199449
X0148071Y0200079
X0141097Y0196772
X0149646Y0190079
X0148878Y0166445
X0139311Y0170571
X0135155Y0177638
X0114606Y0178287
Y0186614
Y0194941
Y0203268
Y020937
X0119961Y0211221
X0119843Y0221437
X0114606Y0219665
Y0228248
Y0236575
X0114626Y0244961
X0114606Y0253228
Y0278209
Y0282382
Y0286535
Y0294862
Y0303189
Y0311516
X0139409Y028685
X0146181Y0290335
X0148228Y0290492
X0134646Y0277852
X0132008Y0228209
X0138051Y022187
X0119862Y0231516
X0114606Y0169961
X0114646Y0160945
X011878Y0163347
X0122264Y0314469
X0119213Y0323681
X0127539
X0135866
X0144193
X015252
X0114606Y0319843
X0160846Y0323681
X0169173
X01775
X0185827
X0194154
X020248
X0210807
X0219134
X0227461
X0235787
X0244114
X0252441
X0260768
X0269094
X0277421
X0277559Y0317736
X0285886
X0285748Y0323681
X0294075
X0294213Y0317736
X0311102Y0317303
Y0313366
Y032124
X0192677Y0315807
T02
X0148228Y0280807
Y0285138
X0146063Y0282972
X0150394
T05
X0132795Y0126146
X0142795
X0152795
X0162795
X0172795
X0182795
X0192795
X0202795
X0218799Y0126142
X0228799
X0238799
X0248799
X0258799
X0268799
X0278799
X0288799
X0298799
X0308799
X0296811Y0141929
Y0151929
X0286811
Y0141929
X0276811
Y0151929
X0266811
Y0141929
X0256811
Y0151929
X0246811
Y0141929
X0236811
Y0151929
X0226811
Y0141929
X0216811
Y0151929
X0206811
Y0141929
X0196811
Y0151929
X0186811
Y0141929
X0176811
Y0151929
X0166811
Y0141929
X0156811
Y0151929
X0152795Y0316146
X0142795
X0132795
X0162795
X0172795
X0182795
X0202795
X0212795
X0222795
X0232795
X0242795
X0252795
X0262795
X0272795
T06
X015626Y0204902
T07
X0123583Y0240335
T08
X0322795Y0126146
X0122795Y0186146
Y0296382
X0327795Y0316146
T09
X0321524Y0190197
Y0253189
M30
