G04*
G04 #@! TF.GenerationSoftware,Altium Limited,Altium Designer,18.1.6 (161)*
G04*
G04 Layer_Color=8421504*
%FSLAX44Y44*%
%MOMM*%
G71*
G01*
G75*
%ADD12R,0.6000X0.5000*%
%ADD13R,2.2000X1.0500*%
%ADD14R,1.0500X1.0000*%
%ADD15R,0.5000X0.7000*%
%ADD16R,0.4000X0.6500*%
%ADD17R,0.6500X0.6000*%
%ADD19R,0.6000X0.6500*%
%ADD20R,1.6000X1.0000*%
%ADD21R,1.6000X0.6000*%
%ADD22R,1.8000X2.3000*%
%ADD23R,3.8000X2.0300*%
%ADD24R,2.1000X1.1000*%
%ADD25R,0.8000X1.1000*%
%ADD26R,2.5000X1.5000*%
%ADD27R,0.5000X0.6000*%
%ADD28R,1.1000X1.0000*%
%ADD29R,3.0000X1.0000*%
%ADD30R,1.2000X1.2000*%
%ADD31R,0.5800X0.5000*%
%ADD32R,0.8000X0.7500*%
%ADD33R,2.5000X1.4250*%
%ADD34R,1.7500X0.4000*%
%ADD35R,0.6500X0.8000*%
%ADD36O,1.0000X2.5000*%
%ADD37O,2.5000X1.0000*%
%ADD38O,2.9500X0.7500*%
%ADD39O,0.7500X2.9500*%
%ADD40R,0.2300X0.5500*%
%ADD41O,0.2500X0.5500*%
%ADD42R,2.0000X1.6000*%
%ADD43R,0.7000X0.2500*%
%ADD44R,0.5500X0.8000*%
%ADD45R,0.6500X0.4000*%
%ADD48R,1.5000X2.5000*%
%ADD70R,1.0000X0.6250*%
%ADD71R,0.5000X1.0000*%
%ADD72R,0.5000X0.7500*%
%ADD73R,0.7500X0.5000*%
G36*
X329100Y629350D02*
X322100D01*
Y634650D01*
X296600D01*
Y647650D01*
X329100D01*
Y629350D01*
D02*
G37*
G36*
X346200Y629400D02*
X332200D01*
Y649400D01*
X346200D01*
Y629400D01*
D02*
G37*
G36*
X329100Y689150D02*
X296600D01*
Y702150D01*
X322100D01*
Y707450D01*
X329100D01*
Y689150D01*
D02*
G37*
G36*
X346200Y687400D02*
X332200D01*
Y707400D01*
X346200D01*
Y687400D01*
D02*
G37*
G36*
X366801Y707191D02*
X367010Y707104D01*
X367199Y706978D01*
X367279Y706898D01*
X367358Y706819D01*
X367483Y706633D01*
X367570Y706426D01*
X367614Y706207D01*
X367615Y706095D01*
X367615Y705983D01*
X367572Y705764D01*
X367487Y705557D01*
X367364Y705371D01*
X367285Y705292D01*
X367285Y705292D01*
X367204Y705209D01*
X367012Y705077D01*
X366798Y704985D01*
X366570Y704937D01*
X366454Y704935D01*
X364632Y704935D01*
X364515Y704935D01*
X364286Y704981D01*
X364070Y705070D01*
X363875Y705200D01*
X363792Y705283D01*
X363715Y705360D01*
X363593Y705543D01*
X363509Y705745D01*
X363467Y705960D01*
X363467Y706069D01*
X363466Y706172D01*
X363501Y706373D01*
X363571Y706566D01*
X363675Y706742D01*
X363742Y706820D01*
X363824Y706911D01*
X364021Y707059D01*
X364243Y707166D01*
X364482Y707227D01*
X364605Y707234D01*
X364605Y707234D01*
X366465Y707235D01*
X366578D01*
X366801Y707191D01*
D02*
G37*
G36*
X388741Y707210D02*
X388950Y707123D01*
X389139Y706997D01*
X389219Y706917D01*
X389298Y706838D01*
X389423Y706653D01*
X389510Y706446D01*
X389554Y706226D01*
X389554Y706114D01*
X389555Y706003D01*
X389512Y705783D01*
X389427Y705577D01*
X389304Y705390D01*
X389225Y705311D01*
X389225Y705311D01*
X389144Y705228D01*
X388952Y705096D01*
X388738Y705004D01*
X388510Y704956D01*
X388393Y704955D01*
X386572Y704955D01*
X386455Y704955D01*
X386226Y705000D01*
X386009Y705090D01*
X385815Y705220D01*
X385732Y705302D01*
X385655Y705380D01*
X385533Y705562D01*
X385449Y705764D01*
X385406Y705979D01*
X385406Y706089D01*
X385406Y706191D01*
X385441Y706393D01*
X385511Y706585D01*
X385615Y706761D01*
X385681Y706839D01*
X385764Y706931D01*
X385961Y707079D01*
X386183Y707186D01*
X386421Y707247D01*
X386544Y707254D01*
X386544Y707254D01*
X388405Y707254D01*
X388518D01*
X388741Y707210D01*
D02*
G37*
G36*
X366810Y732531D02*
X367019Y732444D01*
X367208Y732318D01*
X367288Y732238D01*
X367367Y732159D01*
X367492Y731973D01*
X367579Y731766D01*
X367623Y731547D01*
X367623Y731435D01*
X367624Y731323D01*
X367581Y731104D01*
X367496Y730897D01*
X367373Y730711D01*
X367294Y730632D01*
X367294Y730632D01*
X367213Y730548D01*
X367021Y730416D01*
X366807Y730325D01*
X366579Y730276D01*
X366462Y730275D01*
X364641Y730275D01*
X364524Y730275D01*
X364295Y730321D01*
X364078Y730410D01*
X363884Y730540D01*
X363801Y730623D01*
X363724Y730700D01*
X363602Y730882D01*
X363518Y731085D01*
X363476Y731300D01*
X363476Y731409D01*
X363475Y731512D01*
X363510Y731713D01*
X363580Y731906D01*
X363684Y732082D01*
X363751Y732160D01*
X363833Y732251D01*
X364030Y732399D01*
X364252Y732506D01*
X364491Y732567D01*
X364613Y732574D01*
X364614Y732574D01*
X366474Y732575D01*
X366587D01*
X366810Y732531D01*
D02*
G37*
G36*
X388686Y732518D02*
X388896Y732431D01*
X389084Y732305D01*
X389165Y732225D01*
X389244Y732146D01*
X389369Y731960D01*
X389455Y731753D01*
X389500Y731534D01*
X389500Y731422D01*
X389501Y731310D01*
X389458Y731091D01*
X389373Y730884D01*
X389250Y730698D01*
X389171Y730619D01*
X389171Y730619D01*
X389090Y730536D01*
X388898Y730404D01*
X388684Y730312D01*
X388456Y730264D01*
X388339Y730262D01*
X386518Y730262D01*
X386401Y730262D01*
X386171Y730308D01*
X385955Y730397D01*
X385761Y730527D01*
X385678Y730610D01*
X385601Y730687D01*
X385479Y730870D01*
X385395Y731072D01*
X385352Y731287D01*
X385352Y731396D01*
X385351Y731499D01*
X385387Y731700D01*
X385457Y731893D01*
X385560Y732069D01*
X385627Y732147D01*
X385709Y732238D01*
X385906Y732386D01*
X386129Y732493D01*
X386367Y732554D01*
X386490Y732561D01*
X386490Y732561D01*
X388351Y732562D01*
X388464D01*
X388686Y732518D01*
D02*
G37*
D12*
X724900Y656100D02*
D03*
X714900D02*
D03*
X737100Y633700D02*
D03*
X727100D02*
D03*
X541700Y768000D02*
D03*
X551700D02*
D03*
X659300Y781200D02*
D03*
X649300D02*
D03*
X701150Y423635D02*
D03*
X691150D02*
D03*
X701150Y469185D02*
D03*
X691150D02*
D03*
X636400Y423635D02*
D03*
X626400D02*
D03*
X636400Y469185D02*
D03*
X626400D02*
D03*
X573650Y423635D02*
D03*
X563650D02*
D03*
X573650Y469185D02*
D03*
X563650D02*
D03*
X511400Y423635D02*
D03*
X501400D02*
D03*
X511400Y469185D02*
D03*
X501400D02*
D03*
X452050Y472300D02*
D03*
X442050D02*
D03*
D13*
X760600Y669300D02*
D03*
Y642700D02*
D03*
D14*
X745400Y656000D02*
D03*
D15*
X736900Y654100D02*
D03*
Y645100D02*
D03*
D16*
X346750Y393500D02*
D03*
X336750D02*
D03*
X341750Y405000D02*
D03*
X377450Y684500D02*
D03*
X367450D02*
D03*
X372450Y696000D02*
D03*
D17*
X346500Y383500D02*
D03*
X337000D02*
D03*
X681050Y411234D02*
D03*
X690550D02*
D03*
X700800Y411184D02*
D03*
X710300D02*
D03*
X766600Y700450D02*
D03*
X776100D02*
D03*
X407750Y631550D02*
D03*
X417250D02*
D03*
X407800Y641650D02*
D03*
X417300D02*
D03*
X408850Y473300D02*
D03*
X418350D02*
D03*
X337100Y426850D02*
D03*
X346600D02*
D03*
X335400Y717900D02*
D03*
X325900D02*
D03*
X423200Y655900D02*
D03*
X413700D02*
D03*
X337150Y415000D02*
D03*
X346650D02*
D03*
D19*
X786000Y698300D02*
D03*
Y688800D02*
D03*
X756600Y698300D02*
D03*
Y688800D02*
D03*
X706700Y698850D02*
D03*
Y689350D02*
D03*
X408650Y462500D02*
D03*
Y453000D02*
D03*
X358000Y687450D02*
D03*
Y696950D02*
D03*
X386850Y695700D02*
D03*
Y686200D02*
D03*
X344750Y738350D02*
D03*
Y728850D02*
D03*
X398850Y472300D02*
D03*
Y462800D02*
D03*
X347300Y354750D02*
D03*
Y364250D02*
D03*
D20*
X359150Y650350D02*
D03*
D21*
Y633350D02*
D03*
X381150D02*
D03*
Y652350D02*
D03*
D22*
X906250Y592450D02*
D03*
X869350Y592650D02*
D03*
X905950Y365350D02*
D03*
X868950D02*
D03*
D23*
X315650Y359800D02*
D03*
D24*
X380250Y669050D02*
D03*
D25*
X360500Y669050D02*
D03*
D26*
X417450Y706720D02*
D03*
Y673700D02*
D03*
X387550Y748430D02*
D03*
Y781450D02*
D03*
X356750D02*
D03*
Y748430D02*
D03*
X419650Y725500D02*
D03*
Y758520D02*
D03*
D27*
X353750Y715790D02*
D03*
Y705790D02*
D03*
X369150Y501900D02*
D03*
Y491900D02*
D03*
X682300Y771150D02*
D03*
Y781150D02*
D03*
X398100Y710577D02*
D03*
Y700577D02*
D03*
X397950Y721500D02*
D03*
Y731500D02*
D03*
X354100Y728600D02*
D03*
Y738600D02*
D03*
X672450Y781050D02*
D03*
Y771050D02*
D03*
X416850Y501850D02*
D03*
Y491850D02*
D03*
X405150Y501950D02*
D03*
Y491950D02*
D03*
X418850Y453050D02*
D03*
Y463050D02*
D03*
X392433Y501800D02*
D03*
Y491800D02*
D03*
X380550Y501950D02*
D03*
Y491950D02*
D03*
D28*
X414500Y566250D02*
D03*
Y540850D02*
D03*
Y591650D02*
D03*
X296400Y541050D02*
D03*
Y591850D02*
D03*
Y566450D02*
D03*
D29*
X355400Y619450D02*
D03*
Y513450D02*
D03*
D30*
X301700Y417200D02*
D03*
X321200D02*
D03*
X301800Y386000D02*
D03*
X321300D02*
D03*
D31*
X742550Y700600D02*
D03*
X719350D02*
D03*
D32*
X740450Y690350D02*
D03*
Y710850D02*
D03*
X721450D02*
D03*
Y690350D02*
D03*
D33*
X306100Y658800D02*
D03*
Y678000D02*
D03*
D34*
X337900Y655400D02*
D03*
Y661900D02*
D03*
Y668400D02*
D03*
Y674900D02*
D03*
Y681400D02*
D03*
D35*
X649400Y770600D02*
D03*
X663900D02*
D03*
D36*
X468800Y750500D02*
D03*
X483800D02*
D03*
X498800D02*
D03*
X513800D02*
D03*
X528800D02*
D03*
X543800D02*
D03*
X589800D02*
D03*
X604800D02*
D03*
X619800D02*
D03*
X634800D02*
D03*
X649800D02*
D03*
X664800D02*
D03*
Y515500D02*
D03*
X649800D02*
D03*
X634800D02*
D03*
X619800D02*
D03*
X604800D02*
D03*
X589800D02*
D03*
X543800D02*
D03*
X528800D02*
D03*
X513800D02*
D03*
X498800D02*
D03*
X483800D02*
D03*
X468800D02*
D03*
D37*
X684300Y731000D02*
D03*
Y716000D02*
D03*
Y701000D02*
D03*
Y686000D02*
D03*
Y671000D02*
D03*
Y656000D02*
D03*
Y610000D02*
D03*
Y595000D02*
D03*
Y580000D02*
D03*
Y565000D02*
D03*
Y550000D02*
D03*
Y535000D02*
D03*
X449300D02*
D03*
Y550000D02*
D03*
Y565000D02*
D03*
Y580000D02*
D03*
Y595000D02*
D03*
Y610000D02*
D03*
Y656000D02*
D03*
Y671000D02*
D03*
Y686000D02*
D03*
Y701000D02*
D03*
Y716000D02*
D03*
Y731000D02*
D03*
D38*
X682050Y626750D02*
D03*
Y639250D02*
D03*
X451550Y626750D02*
D03*
Y639250D02*
D03*
D39*
X560550Y748250D02*
D03*
X573050D02*
D03*
Y517750D02*
D03*
X560550D02*
D03*
D40*
X366500Y704500D02*
D03*
X386500D02*
D03*
Y733000D02*
D03*
X366500D02*
D03*
D41*
X371500Y704500D02*
D03*
X376500D02*
D03*
X381500D02*
D03*
Y733000D02*
D03*
X376500D02*
D03*
X371500D02*
D03*
D42*
X376500Y718750D02*
D03*
D43*
X442950Y453050D02*
D03*
Y458050D02*
D03*
Y463050D02*
D03*
X428950Y462950D02*
D03*
Y457950D02*
D03*
Y452950D02*
D03*
D44*
X701200Y434335D02*
D03*
X691700D02*
D03*
X682200D02*
D03*
Y458335D02*
D03*
X691700D02*
D03*
X701200D02*
D03*
X573900Y434335D02*
D03*
X564400D02*
D03*
X554900D02*
D03*
Y458335D02*
D03*
X564400D02*
D03*
X573900D02*
D03*
X636850Y434335D02*
D03*
X627350D02*
D03*
X617850D02*
D03*
Y458335D02*
D03*
X627350D02*
D03*
X636850D02*
D03*
X511700Y434335D02*
D03*
X502200D02*
D03*
X492700D02*
D03*
Y458335D02*
D03*
X502200D02*
D03*
X511700D02*
D03*
D45*
X369100Y359500D02*
D03*
X357600Y364500D02*
D03*
Y354500D02*
D03*
D48*
X726820Y771950D02*
D03*
X693800D02*
D03*
D70*
X589800Y506125D02*
D03*
X619800D02*
D03*
X649800D02*
D03*
X664800D02*
D03*
X634800D02*
D03*
X604800D02*
D03*
X468800D02*
D03*
X498800D02*
D03*
X528800D02*
D03*
X543800D02*
D03*
X513800D02*
D03*
X483800D02*
D03*
X589800Y759875D02*
D03*
X619800D02*
D03*
X649800D02*
D03*
X664800D02*
D03*
X634800D02*
D03*
X604800D02*
D03*
X483800D02*
D03*
X513800D02*
D03*
X543800D02*
D03*
X528800D02*
D03*
X498800D02*
D03*
X468800D02*
D03*
D71*
X694299Y610000D02*
D03*
X694300Y595000D02*
D03*
Y565000D02*
D03*
X694299Y580000D02*
D03*
Y535000D02*
D03*
X694300Y550000D02*
D03*
Y731000D02*
D03*
X694299Y716000D02*
D03*
Y686000D02*
D03*
X694300Y701000D02*
D03*
Y656000D02*
D03*
X694300Y671000D02*
D03*
X439300Y610000D02*
D03*
X439300Y595000D02*
D03*
Y565000D02*
D03*
X439300Y580000D02*
D03*
Y535000D02*
D03*
X439300Y550000D02*
D03*
X439300Y671000D02*
D03*
X439300Y656000D02*
D03*
Y701000D02*
D03*
X439300Y686000D02*
D03*
Y716000D02*
D03*
X439300Y731000D02*
D03*
D72*
X694300Y626750D02*
D03*
Y639250D02*
D03*
X439300Y626750D02*
D03*
Y639250D02*
D03*
D73*
X560550Y760500D02*
D03*
X573050D02*
D03*
X573050Y505500D02*
D03*
X560550D02*
D03*
M02*
